# Blender v2.74 (sub 0) OBJ File: ''
# www.blender.org
mtllib spiral-galaxy-v41.mtl
o Clusters_2
v 0.000000 0.000000 0.000000
v 1.720730 0.000000 -2.457456
v 0.491375 -1.219335 -2.827601
v -0.869643 -2.111950 -2.440093
v -1.997642 -2.438670 -1.398764
v -2.590373 -2.111950 0.017363
v -2.489017 -1.219335 1.428837
v -1.720730 -0.000000 2.457456
v -0.491375 1.219335 2.827601
v 0.869643 2.111950 2.440093
v 1.997642 2.438670 1.398764
v 2.590373 2.111950 -0.017363
v 2.489017 1.219335 -1.428837
v 1.720730 0.000000 -2.457456
vt 1.000000 0.500000
vt 0.933013 0.750000
vt 0.500000 0.500000
vt 0.750000 0.933013
vt 0.500000 1.000000
vt 0.250000 0.933013
vt 0.066987 0.750000
vt 0.000000 0.500000
vt 0.066987 0.250000
vt 0.250000 0.066987
vt 0.500000 0.000000
vt 0.750000 0.066987
vt 0.933013 0.250000
vn -0.579200 0.707100 -0.405600
usemtl Physical3
s 1
f 2/1/1 3/2/1 1/3/1
f 3/2/1 4/4/1 1/3/1
f 4/4/1 5/5/1 1/3/1
f 5/5/1 6/6/1 1/3/1
f 6/6/1 7/7/1 1/3/1
f 7/7/1 8/8/1 1/3/1
f 8/8/1 9/9/1 1/3/1
f 9/9/1 10/10/1 1/3/1
f 10/10/1 11/11/1 1/3/1
f 11/11/1 12/12/1 1/3/1
f 12/12/1 13/13/1 1/3/1
f 13/13/1 14/1/1 1/3/1
o Clusters_1
v 0.000000 0.000000 0.000000
v 2.954423 0.000000 -0.520944
v 2.558605 1.500000 -0.451151
v 1.477211 2.598076 -0.260472
v 0.000000 3.000000 -0.000000
v -1.477211 2.598076 0.260472
v -2.558605 1.500000 0.451151
v -2.954423 0.000000 0.520944
v -2.558605 -1.500000 0.451151
v -1.477211 -2.598076 0.260472
v -0.000000 -3.000000 0.000000
v 1.477211 -2.598076 -0.260472
v 2.558605 -1.500000 -0.451151
v 2.954423 -0.000000 -0.520944
vt 1.000000 0.500000
vt 0.933013 0.750000
vt 0.500000 0.500000
vt 0.750000 0.933013
vt 0.500000 1.000000
vt 0.250000 0.933013
vt 0.066987 0.750000
vt 0.000000 0.500000
vt 0.066987 0.250000
vt 0.250000 0.066987
vt 0.500000 0.000000
vt 0.750000 0.066987
vt 0.933013 0.250000
vn 0.173600 -0.000000 0.984800
usemtl Physical3
s 1
f 16/14/2 17/15/2 15/16/2
f 17/15/2 18/17/2 15/16/2
f 18/17/2 19/18/2 15/16/2
f 19/18/2 20/19/2 15/16/2
f 20/19/2 21/20/2 15/16/2
f 21/20/2 22/21/2 15/16/2
f 22/21/2 23/22/2 15/16/2
f 23/22/2 24/23/2 15/16/2
f 24/23/2 25/24/2 15/16/2
f 25/24/2 26/25/2 15/16/2
f 26/25/2 27/26/2 15/16/2
f 27/26/2 28/14/2 15/16/2
o Crossection_4
v 0.000000 0.000000 0.000000
v -5.656853 0.000000 -5.656854
v -5.533237 1.164305 -5.533238
v -5.167792 2.277725 -5.167793
v -4.576490 3.291597 -4.576491
v -3.785173 4.161611 -3.785174
v -2.828426 4.849742 -2.828427
v -1.748064 5.325917 -1.748064
v -0.591302 5.569323 -0.591302
v 0.591302 5.569323 0.591302
v 1.748064 5.325917 1.748064
v 2.828426 4.849742 2.828427
v 3.785173 4.161611 3.785174
v 4.576490 3.291597 4.576491
v 5.167792 2.277725 5.167793
v 5.533237 1.164305 5.533238
v 5.656853 0.000000 5.656854
v 5.533237 -1.164305 5.533238
v 5.167792 -2.277725 5.167793
v 4.576490 -3.291597 4.576491
v 3.785173 -4.161611 3.785174
v 2.828426 -4.849742 2.828427
v 1.748064 -5.325917 1.748064
v 0.591302 -5.569323 0.591302
v -0.591302 -5.569323 -0.591302
v -1.748064 -5.325917 -1.748064
v -2.828426 -4.849742 -2.828427
v -3.785173 -4.161611 -3.785174
v -4.576490 -3.291597 -4.576491
v -5.167792 -2.277725 -5.167793
v -5.533237 -1.164305 -5.533238
v -5.656853 -0.000000 -5.656854
vt 1.000000 0.500000
vt 0.989074 0.603956
vt 0.500000 0.500000
vt 0.956773 0.703368
vt 0.904508 0.793893
vt 0.834565 0.871572
vt 0.750000 0.933013
vt 0.654508 0.975528
vt 0.552264 0.997261
vt 0.447736 0.997261
vt 0.345491 0.975528
vt 0.250000 0.933013
vt 0.165435 0.871572
vt 0.095492 0.793893
vt 0.043227 0.703368
vt 0.010926 0.603956
vt 0.000000 0.500000
vt 0.010926 0.396044
vt 0.043227 0.296632
vt 0.095492 0.206107
vt 0.165435 0.128428
vt 0.250000 0.066987
vt 0.345491 0.024472
vt 0.447736 0.002739
vt 0.552264 0.002739
vt 0.654508 0.024472
vt 0.750000 0.066987
vt 0.834565 0.128428
vt 0.904508 0.206107
vt 0.956773 0.296632
vt 0.989074 0.396044
vn 0.707100 0.000000 -0.707100
usemtl Physical1
s 1
f 30/27/3 31/28/3 29/29/3
f 31/28/3 32/30/3 29/29/3
f 32/30/3 33/31/3 29/29/3
f 33/31/3 34/32/3 29/29/3
f 34/32/3 35/33/3 29/29/3
f 35/33/3 36/34/3 29/29/3
f 36/34/3 37/35/3 29/29/3
f 37/35/3 38/36/3 29/29/3
f 38/36/3 39/37/3 29/29/3
f 39/37/3 40/38/3 29/29/3
f 40/38/3 41/39/3 29/29/3
f 41/39/3 42/40/3 29/29/3
f 42/40/3 43/41/3 29/29/3
f 43/41/3 44/42/3 29/29/3
f 44/42/3 45/43/3 29/29/3
f 45/43/3 46/44/3 29/29/3
f 46/44/3 47/45/3 29/29/3
f 47/45/3 48/46/3 29/29/3
f 48/46/3 49/47/3 29/29/3
f 49/47/3 50/48/3 29/29/3
f 50/48/3 51/49/3 29/29/3
f 51/49/3 52/50/3 29/29/3
f 52/50/3 53/51/3 29/29/3
f 53/51/3 54/52/3 29/29/3
f 54/52/3 55/53/3 29/29/3
f 55/53/3 56/54/3 29/29/3
f 56/54/3 57/55/3 29/29/3
f 57/55/3 58/56/3 29/29/3
f 58/56/3 59/57/3 29/29/3
f 59/57/3 60/27/3 29/29/3
o Crossection_3
v 0.000000 0.000000 0.000000
v -0.000001 0.000000 -8.000000
v -0.000001 1.164305 -7.825181
v -0.000001 2.277725 -7.308363
v -0.000001 3.291597 -6.472136
v -0.000001 4.161611 -5.353045
v -0.000001 4.849742 -4.000000
v -0.000000 5.325917 -2.472136
v -0.000000 5.569323 -0.836228
v 0.000000 5.569323 0.836228
v 0.000000 5.325917 2.472136
v 0.000001 4.849742 4.000000
v 0.000001 4.161611 5.353045
v 0.000001 3.291597 6.472136
v 0.000001 2.277725 7.308363
v 0.000001 1.164305 7.825181
v 0.000001 0.000000 8.000000
v 0.000001 -1.164305 7.825181
v 0.000001 -2.277725 7.308363
v 0.000001 -3.291597 6.472136
v 0.000001 -4.161611 5.353045
v 0.000001 -4.849742 4.000000
v 0.000000 -5.325917 2.472136
v 0.000000 -5.569323 0.836228
v -0.000000 -5.569323 -0.836228
v -0.000000 -5.325917 -2.472136
v -0.000001 -4.849742 -4.000000
v -0.000001 -4.161611 -5.353045
v -0.000001 -3.291597 -6.472136
v -0.000001 -2.277725 -7.308363
v -0.000001 -1.164305 -7.825181
v -0.000001 -0.000000 -8.000000
vt 1.000000 0.500000
vt 0.989074 0.603956
vt 0.500000 0.500000
vt 0.956773 0.703368
vt 0.904508 0.793893
vt 0.834565 0.871572
vt 0.750000 0.933013
vt 0.654508 0.975528
vt 0.552264 0.997261
vt 0.447736 0.997261
vt 0.345491 0.975528
vt 0.250000 0.933013
vt 0.165435 0.871572
vt 0.095492 0.793893
vt 0.043227 0.703368
vt 0.010926 0.603956
vt 0.000000 0.500000
vt 0.010926 0.396044
vt 0.043227 0.296632
vt 0.095492 0.206107
vt 0.165435 0.128428
vt 0.250000 0.066987
vt 0.345491 0.024472
vt 0.447736 0.002739
vt 0.552264 0.002739
vt 0.654508 0.024472
vt 0.750000 0.066987
vt 0.834565 0.128428
vt 0.904508 0.206107
vt 0.956773 0.296632
vt 0.989074 0.396044
vn 1.000000 0.000000 -0.000000
usemtl Physical1
s 1
f 62/58/4 63/59/4 61/60/4
f 63/59/4 64/61/4 61/60/4
f 64/61/4 65/62/4 61/60/4
f 65/62/4 66/63/4 61/60/4
f 66/63/4 67/64/4 61/60/4
f 67/64/4 68/65/4 61/60/4
f 68/65/4 69/66/4 61/60/4
f 69/66/4 70/67/4 61/60/4
f 70/67/4 71/68/4 61/60/4
f 71/68/4 72/69/4 61/60/4
f 72/69/4 73/70/4 61/60/4
f 73/70/4 74/71/4 61/60/4
f 74/71/4 75/72/4 61/60/4
f 75/72/4 76/73/4 61/60/4
f 76/73/4 77/74/4 61/60/4
f 77/74/4 78/75/4 61/60/4
f 78/75/4 79/76/4 61/60/4
f 79/76/4 80/77/4 61/60/4
f 80/77/4 81/78/4 61/60/4
f 81/78/4 82/79/4 61/60/4
f 82/79/4 83/80/4 61/60/4
f 83/80/4 84/81/4 61/60/4
f 84/81/4 85/82/4 61/60/4
f 85/82/4 86/83/4 61/60/4
f 86/83/4 87/84/4 61/60/4
f 87/84/4 88/85/4 61/60/4
f 88/85/4 89/86/4 61/60/4
f 89/86/4 90/87/4 61/60/4
f 90/87/4 91/88/4 61/60/4
f 91/88/4 92/58/4 61/60/4
o Crossection_1
v 0.000000 0.000000 0.000000
v 8.000000 0.000000 0.000000
v 7.825181 1.164305 0.000000
v 7.308363 2.277725 0.000000
v 6.472136 3.291597 0.000000
v 5.353045 4.161611 0.000000
v 4.000000 4.849742 0.000000
v 2.472136 5.325917 0.000000
v 0.836228 5.569323 0.000000
v -0.836228 5.569323 0.000000
v -2.472136 5.325917 0.000000
v -4.000000 4.849742 0.000000
v -5.353045 4.161611 0.000000
v -6.472136 3.291597 0.000000
v -7.308363 2.277725 0.000000
v -7.825181 1.164305 0.000000
v -8.000000 0.000000 0.000000
v -7.825181 -1.164305 0.000000
v -7.308363 -2.277725 0.000000
v -6.472136 -3.291597 0.000000
v -5.353045 -4.161611 0.000000
v -4.000000 -4.849742 0.000000
v -2.472136 -5.325917 0.000000
v -0.836228 -5.569323 0.000000
v 0.836228 -5.569323 0.000000
v 2.472136 -5.325917 0.000000
v 4.000000 -4.849742 0.000000
v 5.353045 -4.161611 0.000000
v 6.472136 -3.291597 0.000000
v 7.308363 -2.277725 0.000000
v 7.825181 -1.164305 0.000000
v 8.000000 -0.000000 0.000000
vt 1.000000 0.500000
vt 0.989074 0.603956
vt 0.500000 0.500000
vt 0.956773 0.703368
vt 0.904508 0.793893
vt 0.834565 0.871572
vt 0.750000 0.933013
vt 0.654508 0.975528
vt 0.552264 0.997261
vt 0.447736 0.997261
vt 0.345491 0.975528
vt 0.250000 0.933013
vt 0.165435 0.871572
vt 0.095492 0.793893
vt 0.043227 0.703368
vt 0.010926 0.603956
vt 0.000000 0.500000
vt 0.010926 0.396044
vt 0.043227 0.296632
vt 0.095492 0.206107
vt 0.165435 0.128428
vt 0.250000 0.066987
vt 0.345491 0.024472
vt 0.447736 0.002739
vt 0.552264 0.002739
vt 0.654508 0.024472
vt 0.750000 0.066987
vt 0.834565 0.128428
vt 0.904508 0.206107
vt 0.956773 0.296632
vt 0.989074 0.396044
vn 0.000000 0.000000 1.000000
usemtl Physical1
s 1
f 94/89/5 95/90/5 93/91/5
f 95/90/5 96/92/5 93/91/5
f 96/92/5 97/93/5 93/91/5
f 97/93/5 98/94/5 93/91/5
f 98/94/5 99/95/5 93/91/5
f 99/95/5 100/96/5 93/91/5
f 100/96/5 101/97/5 93/91/5
f 101/97/5 102/98/5 93/91/5
f 102/98/5 103/99/5 93/91/5
f 103/99/5 104/100/5 93/91/5
f 104/100/5 105/101/5 93/91/5
f 105/101/5 106/102/5 93/91/5
f 106/102/5 107/103/5 93/91/5
f 107/103/5 108/104/5 93/91/5
f 108/104/5 109/105/5 93/91/5
f 109/105/5 110/106/5 93/91/5
f 110/106/5 111/107/5 93/91/5
f 111/107/5 112/108/5 93/91/5
f 112/108/5 113/109/5 93/91/5
f 113/109/5 114/110/5 93/91/5
f 114/110/5 115/111/5 93/91/5
f 115/111/5 116/112/5 93/91/5
f 116/112/5 117/113/5 93/91/5
f 117/113/5 118/114/5 93/91/5
f 118/114/5 119/115/5 93/91/5
f 119/115/5 120/116/5 93/91/5
f 120/116/5 121/117/5 93/91/5
f 121/117/5 122/118/5 93/91/5
f 122/118/5 123/119/5 93/91/5
f 123/119/5 124/89/5 93/91/5
o Galactic_plane
v 6.004661 5.278907 -11.186241
v 4.567604 -5.604047 -11.656679
v -3.962404 5.604047 11.738680
v -5.399461 -5.278907 11.268242
vt 0.000000 1.000000
vt 0.000000 0.000000
vt 1.000000 0.000000
vt 1.000000 1.000000
vn 0.907700 -0.137000 0.396600
usemtl Physical
s 1
f 125/120/6 127/121/6 128/122/6 126/123/6
o M32
v -1.704254 1.520707 14.355114
v 1.827836 2.806282 12.987034
v 0.172164 -0.806282 17.012966
v 3.704254 0.479293 15.644886
vt 0.000000 1.000000
vt 0.000000 0.000000
vt 1.000000 0.000000
vt 1.000000 1.000000
vn -0.014600 0.747200 0.664500
usemtl Physical2
s 1
f 129/124/7 131/125/7 132/126/7 130/127/7
o Crossection_2
v 0.000000 0.000000 0.000000
v 9.575357 0.000000 -9.575358
v 9.366113 1.164305 -9.366114
v 8.747524 2.277725 -8.747525
v 7.746627 3.291597 -7.746628
v 6.407165 4.161611 -6.407166
v 4.787679 4.849742 -4.787679
v 2.958948 5.325917 -2.958949
v 1.000897 5.569323 -1.000898
v -1.000897 5.569323 1.000898
v -2.958948 5.325917 2.958949
v -4.787679 4.849742 4.787679
v -6.407165 4.161611 6.407166
v -7.746627 3.291597 7.746628
v -8.747524 2.277725 8.747525
v -9.366113 1.164305 9.366114
v -9.575357 0.000000 9.575358
v -9.366113 -1.164305 9.366114
v -8.747524 -2.277725 8.747525
v -7.746627 -3.291597 7.746628
v -6.407165 -4.161611 6.407166
v -4.787679 -4.849742 4.787679
v -2.958948 -5.325917 2.958949
v -1.000897 -5.569323 1.000898
v 1.000897 -5.569323 -1.000898
v 2.958948 -5.325917 -2.958949
v 4.787679 -4.849742 -4.787679
v 6.407165 -4.161611 -6.407166
v 7.746627 -3.291597 -7.746628
v 8.747524 -2.277725 -8.747525
v 9.366113 -1.164305 -9.366114
v 9.575357 -0.000000 -9.575358
vt 1.000000 0.500000
vt 0.989074 0.603956
vt 0.500000 0.500000
vt 0.956773 0.703368
vt 0.904508 0.793893
vt 0.834565 0.871572
vt 0.750000 0.933013
vt 0.654508 0.975528
vt 0.552264 0.997261
vt 0.447736 0.997261
vt 0.345491 0.975528
vt 0.250000 0.933013
vt 0.165435 0.871572
vt 0.095492 0.793893
vt 0.043227 0.703368
vt 0.010926 0.603956
vt 0.000000 0.500000
vt 0.010926 0.396044
vt 0.043227 0.296632
vt 0.095492 0.206107
vt 0.165435 0.128428
vt 0.250000 0.066987
vt 0.345491 0.024472
vt 0.447736 0.002739
vt 0.552264 0.002739
vt 0.654508 0.024472
vt 0.750000 0.066987
vt 0.834565 0.128428
vt 0.904508 0.206107
vt 0.956773 0.296632
vt 0.989074 0.396044
vn 0.707100 0.000000 0.707100
usemtl Physical1
s 1
f 134/128/8 135/129/8 133/130/8
f 135/129/8 136/131/8 133/130/8
f 136/131/8 137/132/8 133/130/8
f 137/132/8 138/133/8 133/130/8
f 138/133/8 139/134/8 133/130/8
f 139/134/8 140/135/8 133/130/8
f 140/135/8 141/136/8 133/130/8
f 141/136/8 142/137/8 133/130/8
f 142/137/8 143/138/8 133/130/8
f 143/138/8 144/139/8 133/130/8
f 144/139/8 145/140/8 133/130/8
f 145/140/8 146/141/8 133/130/8
f 146/141/8 147/142/8 133/130/8
f 147/142/8 148/143/8 133/130/8
f 148/143/8 149/144/8 133/130/8
f 149/144/8 150/145/8 133/130/8
f 150/145/8 151/146/8 133/130/8
f 151/146/8 152/147/8 133/130/8
f 152/147/8 153/148/8 133/130/8
f 153/148/8 154/149/8 133/130/8
f 154/149/8 155/150/8 133/130/8
f 155/150/8 156/151/8 133/130/8
f 156/151/8 157/152/8 133/130/8
f 157/152/8 158/153/8 133/130/8
f 158/153/8 159/154/8 133/130/8
f 159/154/8 160/155/8 133/130/8
f 160/155/8 161/156/8 133/130/8
f 161/156/8 162/157/8 133/130/8
f 162/157/8 163/158/8 133/130/8
f 163/158/8 164/128/8 133/130/8
